<?xml version="1.0" encoding="utf-8"?>
<!-- Generator: Adobe Illustrator 26.0.3, SVG Export Plug-In . SVG Version: 6.00 Build 0)  -->
<svg version="1.1" id="Ebene_1" xmlns="http://www.w3.org/2000/svg" xmlns:xlink="http://www.w3.org/1999/xlink" x="0px" y="0px"
	 width="174px" height="91px" viewBox="0 0 174 91" style="enable-background:new 0 0 174 91;" xml:space="preserve">
<style type="text/css">
	.st0{fill:#1F1918;}
	.st1{fill:#F07D00;}
</style>
<g>
	<g>
		<path class="st0" d="M25.63,56.96c-3.35,0-6.01-0.96-7.99-2.88c-1.98-1.92-2.96-4.5-2.96-7.76c0-3.1,0.91-5.64,2.74-7.64
			c1.82-2,4.16-3,7-3c2.73,0,5.68,1.02,8.87,3.05v-6.72c-1.92-0.85-3.53-1.44-4.83-1.75c-1.31-0.31-2.78-0.47-4.42-0.47
			c-4.71,0-8.51,1.54-11.4,4.61C9.74,37.48,8.3,41.52,8.3,46.53c0,4.97,1.48,8.93,4.45,11.89c2.97,2.96,6.95,4.44,11.94,4.44
			c3.03,0,6.12-0.59,9.29-1.77v-6.24C30.84,56.26,28.05,56.96,25.63,56.96"/>
		<path class="st0" d="M76.55,62.59c1.48,0.4,3.17,0.61,5.06,0.61c3.21,0,5.84-0.84,7.88-2.51c2.04-1.67,3.07-3.82,3.07-6.43
			c0-3.65-2.66-6.97-7.97-9.98L82.33,43c-1.71-0.95-2.91-1.75-3.59-2.43c-0.68-0.67-1.02-1.38-1.02-2.12c0-0.86,0.38-1.54,1.13-2.06
			c0.75-0.52,1.74-0.78,2.96-0.78c2.38,0,5.44,1.13,9.18,3.4v-6.24c-3.28-1.76-6.48-2.63-9.6-2.63c-3,0-5.46,0.77-7.36,2.32
			C72.13,34,71.18,36,71.18,38.45c0,1.89,0.63,3.64,1.89,5.25c1.26,1.61,3.92,3.54,7.99,5.8c2.03,1.16,3.36,2.04,3.97,2.65
			c0.61,0.61,0.92,1.38,0.92,2.3c0,0.9-0.47,1.68-1.42,2.32c-0.95,0.65-2.08,0.97-3.4,0.97c-1.27,0-2.84-0.39-4.7-1.16
			c-1.86-0.77-3.68-1.79-5.46-3.03v6.79C73.21,61.44,75.07,62.18,76.55,62.59"/>
		<path class="st0" d="M52.84,35.95c2.66,0,4.81,0.99,6.46,2.98c1.65,1.99,2.48,4.56,2.48,7.73c0,3.12-0.88,5.67-2.65,7.66
			c-1.77,1.99-4.05,2.98-6.84,2.98c-2.26,0-4.47-0.32-6.62-0.97V39.07C48.1,36.99,50.49,35.95,52.84,35.95 M39.36,60.87
			c1.34,0.67,3.15,1.22,5.42,1.66c2.27,0.44,4.44,0.66,6.5,0.66c5.13,0,9.22-1.52,12.28-4.56c3.06-3.04,4.59-7.12,4.59-12.25
			c0-4.78-1.28-8.7-3.85-11.75c-2.56-3.05-5.87-4.57-9.91-4.57c-3.1,0-6.01,0.99-8.73,2.98V14.23l-6.31,5.25V60.87z"/>
		<path class="st1" d="M125.9,60.51c3.44,1.47,7.23,2.29,11.2,2.29c15.74,0,28.49-12.76,28.49-28.49c0-3.21-0.54-6.29-1.51-9.16
			C159.57,38.03,135.21,58.37,125.9,60.51 M113.72,18.04c-3.22,4.61-5.11,10.22-5.11,16.27c0,6.59,2.24,12.66,6,17.48
			C112.75,43.45,112.54,25.26,113.72,18.04 M155.55,12.61c-4.97-4.23-11.41-6.79-18.45-6.79c-7.27,0-13.9,2.73-18.93,7.21
			C132.44,9.7,148.92,11.6,155.55,12.61"/>
		<path class="st1" d="M121.82,22.23c-0.62,1.98-1.25,7.11-1.25,13.02s0.54,12.42,1.25,14.92c0.71,2.5,1.19,3.09,3.58,2.5
			c2.39-0.6,13.45-8.52,17.2-11.99c4.72-4.39,9.38-9.28,15.79-17.74c2.33-3.42-1.46-4.01-1.46-4.01s-7.35-1.74-17.68-1.52
			c-7.38,0.33-12.37,0.92-14.21,1.46C123.17,19.41,122.44,20.25,121.82,22.23"/>
	</g>
	<g>
		<path class="st0" d="M7.66,78.97c0-2.39,1.76-4,3.87-4c1.87,0,3.15,1.09,3.47,2.68h-1.07c-0.31-1.06-1.18-1.7-2.41-1.7
			c-1.69,0-2.77,1.28-2.77,3.02S9.83,82,11.52,82c1.23,0,2.1-0.64,2.41-1.7H15c-0.32,1.59-1.61,2.68-3.47,2.68
			C9.42,82.97,7.66,81.36,7.66,78.97z"/>
		<path class="st0" d="M16.43,80.08c0-1.66,1.16-2.89,2.86-2.89c1.7,0,2.86,1.23,2.86,2.89c0,1.66-1.16,2.89-2.86,2.89
			C17.59,82.97,16.43,81.74,16.43,80.08z M21.17,80.08c0-1.31-0.82-2-1.88-2c-1.06,0-1.88,0.69-1.88,2c0,1.31,0.82,2,1.88,2
			C20.35,82.09,21.17,81.4,21.17,80.08z"/>
		<path class="st0" d="M23.77,77.31h0.98v0.72c0.38-0.43,0.93-0.83,1.63-0.83c0.2,0,0.34,0.03,0.44,0.09l-0.16,0.81
			c-0.09-0.02-0.17-0.03-0.36-0.03c-0.62,0-1.2,0.38-1.57,1.07v3.74h-0.98V77.31z"/>
		<path class="st0" d="M28.29,77.31h0.98v0.61c0.32-0.34,0.91-0.72,1.77-0.72c1.37,0,2.55,1.11,2.55,2.89
			c0,1.78-1.07,2.89-2.52,2.89c-0.71,0-1.37-0.26-1.79-0.7v2.81h-0.98V77.31z M32.61,80.08c0-1.4-0.79-2-1.72-2
			c-0.88,0-1.61,0.67-1.61,1.46v1.07c0,0.79,0.73,1.48,1.61,1.48C31.82,82.09,32.61,81.49,32.61,80.08z"/>
		<path class="st0" d="M34.92,80.08c0-1.66,1.16-2.89,2.86-2.89c1.7,0,2.86,1.23,2.86,2.89c0,1.66-1.16,2.89-2.86,2.89
			C36.08,82.97,34.92,81.74,34.92,80.08z M39.65,80.08c0-1.31-0.82-2-1.88-2c-1.06,0-1.88,0.69-1.88,2c0,1.31,0.82,2,1.88,2
			C38.83,82.09,39.65,81.4,39.65,80.08z"/>
		<path class="st0" d="M42.25,77.31h0.98v0.72c0.38-0.43,0.93-0.83,1.63-0.83c0.2,0,0.34,0.03,0.44,0.09l-0.16,0.81
			c-0.09-0.02-0.17-0.03-0.36-0.03c-0.62,0-1.2,0.38-1.57,1.07v3.74h-0.98V77.31z"/>
		<path class="st0" d="M46.12,81.36c0-1.09,0.88-1.65,1.88-1.75l1.73-0.18v-0.38c0-0.67-0.52-0.98-1.23-0.98
			c-0.59,0-1.06,0.27-1.21,0.9h-0.92c0.18-1.25,1.2-1.79,2.2-1.79c1.3,0,2.15,0.7,2.15,1.76v2.6c0,0.36,0.16,0.58,0.49,0.58
			c0.09,0,0.18-0.01,0.29-0.04v0.73c-0.27,0.09-0.44,0.11-0.62,0.11c-0.49,0-0.94-0.2-1.1-0.87c-0.38,0.42-1.1,0.91-1.88,0.91
			C46.85,82.97,46.12,82.35,46.12,81.36z M49.74,81.22v-1l-1.67,0.19c-0.66,0.08-0.97,0.47-0.97,0.91c0,0.52,0.39,0.77,0.9,0.77
			C48.68,82.09,49.25,81.71,49.74,81.22z"/>
		<path class="st0" d="M53.22,81.57v-3.38h-1.1v-0.89h1.1v-1.67l0.98,0.36v1.31h1.33v0.89H54.2v3.31c0,0.37,0.21,0.6,0.69,0.6
			c0.26,0,0.39-0.03,0.59-0.07v0.82c-0.3,0.08-0.51,0.11-0.89,0.11C53.74,82.97,53.22,82.5,53.22,81.57z"/>
		<path class="st0" d="M56.69,80.08c0-1.73,1.26-2.89,2.71-2.89c1.49,0,2.61,1.03,2.61,2.82v0.38h-4.34
			c0.03,1.07,0.73,1.69,1.73,1.69c0.87,0,1.43-0.46,1.63-1.12h0.91c-0.3,1.23-1.19,2.01-2.56,2.01
			C57.71,82.97,56.69,81.82,56.69,80.08z M61.09,79.55c-0.08-0.98-0.82-1.47-1.69-1.47c-0.87,0-1.56,0.53-1.71,1.47H61.09z"/>
		<path class="st0" d="M66.39,75.08h2.89c1.52,0,2.43,0.86,2.43,1.96c0,0.83-0.46,1.35-1.01,1.66c0.71,0.2,1.46,0.89,1.46,1.91
			c0,1.37-1.03,2.26-2.7,2.26h-3.07V75.08z M69.38,78.37c0.83,0,1.32-0.34,1.32-1.16c0-0.81-0.49-1.16-1.32-1.16h-1.92v2.31H69.38z
			 M69.75,81.89c0.87,0,1.4-0.44,1.4-1.27c0-0.82-0.53-1.27-1.4-1.27h-2.29v2.53H69.75z"/>
		<path class="st0" d="M73.68,81.14v-3.84h0.98v3.66c0,0.73,0.4,1.15,1.13,1.15c0.68,0,1.26-0.47,1.67-1.07v-3.74h0.98v5.56h-0.98
			v-0.72c-0.39,0.41-1.12,0.83-1.95,0.83C74.33,82.97,73.68,82.26,73.68,81.14z"/>
		<path class="st0" d="M79.96,81.13h0.92c0.14,0.57,0.5,0.96,1.39,0.96c0.59,0,1.12-0.28,1.12-0.79c0-0.5-0.51-0.72-1.6-1
			c-1.1-0.28-1.63-0.73-1.63-1.6c0-0.81,0.77-1.5,1.88-1.5c1.19,0,1.99,0.61,2.09,1.76h-0.97c-0.08-0.6-0.51-0.91-1.12-0.91
			c-0.43,0-0.94,0.19-0.94,0.63c0,0.41,0.46,0.63,1.46,0.9c1.17,0.31,1.8,0.73,1.8,1.6c0,1.02-0.83,1.8-2.1,1.8
			C80.93,82.97,80.07,82.29,79.96,81.13z"/>
		<path class="st0" d="M85.77,75.79c0-0.37,0.3-0.67,0.67-0.67c0.37,0,0.67,0.3,0.67,0.67c0,0.37-0.3,0.67-0.67,0.67
			C86.07,76.46,85.77,76.16,85.77,75.79z M85.94,77.31h0.98v5.56h-0.98V77.31z"/>
		<path class="st0" d="M88.83,77.31h0.98v0.72c0.39-0.41,1.12-0.83,1.95-0.83c1.19,0,1.83,0.71,1.83,1.83v3.84h-0.98v-3.66
			c0-0.73-0.4-1.14-1.13-1.14c-0.68,0-1.26,0.47-1.67,1.07v3.74h-0.98V77.31z"/>
		<path class="st0" d="M95.16,80.08c0-1.73,1.26-2.89,2.71-2.89c1.49,0,2.61,1.03,2.61,2.82v0.38h-4.34
			c0.03,1.07,0.73,1.69,1.73,1.69c0.87,0,1.43-0.46,1.63-1.12h0.91c-0.3,1.23-1.19,2.01-2.56,2.01
			C96.18,82.97,95.16,81.82,95.16,80.08z M99.56,79.55c-0.08-0.98-0.82-1.47-1.69-1.47c-0.87,0-1.56,0.53-1.71,1.47H99.56z"/>
		<path class="st0" d="M101.65,81.13h0.92c0.14,0.57,0.5,0.96,1.39,0.96c0.59,0,1.12-0.28,1.12-0.79c0-0.5-0.51-0.72-1.6-1
			c-1.1-0.28-1.63-0.73-1.63-1.6c0-0.81,0.77-1.5,1.88-1.5c1.19,0,1.99,0.61,2.09,1.76h-0.97c-0.08-0.6-0.51-0.91-1.12-0.91
			c-0.43,0-0.95,0.19-0.95,0.63c0,0.41,0.46,0.63,1.46,0.9c1.17,0.31,1.8,0.73,1.8,1.6c0,1.02-0.83,1.8-2.1,1.8
			C102.62,82.97,101.76,82.29,101.65,81.13z"/>
		<path class="st0" d="M107.25,81.13h0.92c0.14,0.57,0.5,0.96,1.39,0.96c0.59,0,1.12-0.28,1.12-0.79c0-0.5-0.51-0.72-1.6-1
			c-1.1-0.28-1.63-0.73-1.63-1.6c0-0.81,0.77-1.5,1.88-1.5c1.19,0,1.99,0.61,2.09,1.76h-0.97c-0.08-0.6-0.51-0.91-1.12-0.91
			c-0.43,0-0.95,0.19-0.95,0.63c0,0.41,0.46,0.63,1.46,0.9c1.17,0.31,1.8,0.73,1.8,1.6c0,1.02-0.83,1.8-2.1,1.8
			C108.22,82.97,107.37,82.29,107.25,81.13z"/>
		<path class="st0" d="M115.77,80.44h1.03c0.1,1.01,0.91,1.56,1.89,1.56c0.93,0,1.7-0.48,1.7-1.45c0-0.89-0.53-1.28-2.02-1.6
			c-1.33-0.29-2.33-0.81-2.33-2.06c0-1.17,1.08-1.92,2.45-1.92c1.55,0,2.53,0.82,2.63,2.22h-1.01c-0.12-0.83-0.69-1.25-1.62-1.25
			c-0.82,0-1.4,0.37-1.4,0.91c0,0.68,0.62,0.98,2,1.29c1.49,0.33,2.38,1.04,2.38,2.37c0,1.48-1.21,2.46-2.77,2.46
			C117.2,82.97,115.86,82.01,115.77,80.44z"/>
		<path class="st0" d="M122.86,80.08c0-1.66,1.16-2.89,2.86-2.89c1.7,0,2.86,1.23,2.86,2.89c0,1.66-1.16,2.89-2.86,2.89
			C124.02,82.97,122.86,81.74,122.86,80.08z M127.6,80.08c0-1.31-0.82-2-1.88-2c-1.06,0-1.88,0.69-1.88,2c0,1.31,0.82,2,1.88,2
			C126.77,82.09,127.6,81.4,127.6,80.08z"/>
		<path class="st0" d="M130.19,74.75h0.98v8.12h-0.98V74.75z"/>
		<path class="st0" d="M133.03,81.14v-3.84h0.98v3.66c0,0.73,0.4,1.15,1.13,1.15c0.68,0,1.26-0.47,1.67-1.07v-3.74h0.98v5.56h-0.98
			v-0.72c-0.39,0.41-1.12,0.83-1.95,0.83C133.68,82.97,133.03,82.26,133.03,81.14z"/>
		<path class="st0" d="M140.33,81.57v-3.38h-1.1v-0.89h1.1v-1.67l0.98,0.36v1.31h1.33v0.89h-1.33v3.31c0,0.37,0.21,0.6,0.69,0.6
			c0.26,0,0.39-0.03,0.59-0.07v0.82c-0.3,0.08-0.51,0.11-0.89,0.11C140.85,82.97,140.33,82.5,140.33,81.57z"/>
		<path class="st0" d="M144.04,75.79c0-0.37,0.3-0.67,0.67-0.67s0.67,0.3,0.67,0.67c0,0.37-0.3,0.67-0.67,0.67
			S144.04,76.16,144.04,75.79z M144.22,77.31h0.98v5.56h-0.98V77.31z"/>
		<path class="st0" d="M146.82,80.08c0-1.66,1.16-2.89,2.86-2.89c1.7,0,2.86,1.23,2.86,2.89c0,1.66-1.16,2.89-2.86,2.89
			C147.97,82.97,146.82,81.74,146.82,80.08z M151.55,80.08c0-1.31-0.82-2-1.88-2c-1.06,0-1.88,0.69-1.88,2c0,1.31,0.82,2,1.88,2
			C150.73,82.09,151.55,81.4,151.55,80.08z"/>
		<path class="st0" d="M154.15,77.31h0.98v0.72c0.39-0.41,1.12-0.83,1.95-0.83c1.19,0,1.83,0.71,1.83,1.83v3.84h-0.98v-3.66
			c0-0.73-0.4-1.14-1.13-1.14c-0.68,0-1.26,0.47-1.67,1.07v3.74h-0.98V77.31z"/>
		<path class="st0" d="M160.39,81.13h0.92c0.14,0.57,0.5,0.96,1.39,0.96c0.59,0,1.12-0.28,1.12-0.79c0-0.5-0.51-0.72-1.6-1
			c-1.1-0.28-1.63-0.73-1.63-1.6c0-0.81,0.77-1.5,1.88-1.5c1.19,0,1.99,0.61,2.09,1.76h-0.97c-0.08-0.6-0.51-0.91-1.12-0.91
			c-0.43,0-0.95,0.19-0.95,0.63c0,0.41,0.46,0.63,1.46,0.9c1.17,0.31,1.8,0.73,1.8,1.6c0,1.02-0.83,1.8-2.1,1.8
			C161.36,82.97,160.5,82.29,160.39,81.13z"/>
	</g>
</g>
<g>
</g>
<g>
</g>
<g>
</g>
<g>
</g>
<g>
</g>
<g>
</g>
<g>
</g>
<g>
</g>
<g>
</g>
<g>
</g>
<g>
</g>
<g>
</g>
<g>
</g>
<g>
</g>
<g>
</g>
</svg>
